<!-- icon666.com - MILLIONS vector ICONS FREE --><svg id="Layer_1" enable-background="new 0 0 512 512" viewBox="0 0 512 512" xmlns="http://www.w3.org/2000/svg"><path d="m256 0c-141.159 0-256 114.841-256 256s114.841 256 256 256 256-114.841 256-256-114.841-256-256-256zm0 488c-127.925 0-232-104.075-232-232s104.075-232 232-232 232 104.075 232 232-104.075 232-232 232zm120.313-287.738h-146.864c-16.094 0-29.188 13.094-29.188 29.188v146.863c0 16.094 13.094 29.188 29.188 29.188h146.863c16.094 0 29.188-13.094 29.188-29.188v-146.864c0-16.094-13.094-29.187-29.187-29.187zm5.187 176.051c0 2.86-2.327 5.188-5.188 5.188h-146.863c-2.86 0-5.188-2.327-5.188-5.188v-146.864c0-2.86 2.327-5.188 5.188-5.188h146.863c2.86 0 5.188 2.327 5.188 5.188zm-192.988-76.575c0 6.628-5.372 12-12 12h-40.824c-16.094 0-29.188-13.094-29.188-29.188v-146.862c0-16.094 13.094-29.188 29.188-29.188h146.863c16.094 0 29.188 13.094 29.188 29.188v40.824c0 6.628-5.372 12-12 12s-12-5.372-12-12v-40.824c0-2.86-2.327-5.188-5.188-5.188h-146.863c-2.86 0-5.188 2.327-5.188 5.188v146.863c0 2.86 2.327 5.188 5.188 5.188h40.824c6.628-.001 12 5.371 12 11.999z" fill="currentColor"></path></svg>