<!-- icon666.com - MILLIONS vector ICONS FREE --><svg id="Layer_1" viewBox="0 0 512 512" xmlns="http://www.w3.org/2000/svg" data-name="Layer 1"><path fill="currentColor" d="m24.469 475.262h318.444a24.5 24.5 0 0 0 24.47-24.47v-304.645a24.33 24.33 0 0 0 -7.02-17.154l-83.5-84.939a24.285 24.285 0 0 0 -17.45-7.316h-234.944a24.5 24.5 0 0 0 -24.469 24.469v389.585a24.5 24.5 0 0 0 24.469 24.47zm7.531-406.524h224.254l79.129 80.491v294.033h-303.383zm78.722 63.924a16 16 0 0 1 16-16h97.4a16 16 0 0 1 0 32h-97.4a16 16 0 0 1 -16-16zm170.378 80.515a16 16 0 0 1 -16 16h-162.817a16 16 0 1 1 0-32h162.817a16 16 0 0 1 16 16zm0 83.08a16 16 0 0 1 -16 16h-162.817a16 16 0 0 1 0-32h162.817a16 16 0 0 1 16 16zm0 83.08a16 16 0 0 1 -16 16h-162.817a16 16 0 0 1 0-32h162.817a16 16 0 0 1 16 16zm171.222-342.672h-1.994a59.746 59.746 0 0 0 -59.678 59.678v297.435a16 16 0 0 0 2.917 9.21l46.15 65.557a16 16 0 0 0 13.082 6.79h.247a16 16 0 0 0 13.114-7.194l43.2-65.557a16 16 0 0 0 2.64-8.8v-297.441a59.745 59.745 0 0 0 -59.678-59.678zm-29.672 334.335v-239.66h57.35v239.66zm27.678-302.335h1.994a27.709 27.709 0 0 1 27.678 27.678v3h-57.35v-3a27.709 27.709 0 0 1 27.678-27.678zm2.035 362.255-19.656-27.92h38.057z"></path></svg>