<svg id="Layer_1" viewBox="0 0 512 512" xmlns="http://www.w3.org/2000/svg" data-name="Layer 1"><path fill="currentColor" d="m140.858 151.32a75.66 75.66 0 1 0 -75.658-75.66 75.746 75.746 0 0 0 75.658 75.66zm0-135.32a59.66 59.66 0 1 1 -59.658 59.66 59.728 59.728 0 0 1 59.658-59.66zm38.663 141.958h-77.328a54.067 54.067 0 0 0 -54 54v106.913a54 54 0 0 0 25.141 45.608l19.118 144.826h97.091l19.15-145.024a53.992 53.992 0 0 0 24.833-45.41v-106.909a54.067 54.067 0 0 0 -54.005-54.004zm-4 335.347h-69.042l-16.079-121.742a53.973 53.973 0 0 0 11.79 1.312h77.328a53.946 53.946 0 0 0 12.082-1.375zm42.009-174.434a38.048 38.048 0 0 1 -38.005 38h-77.332a37.76 37.76 0 0 1 -17.48-4.276q-.315-.18-.645-.332a38.034 38.034 0 0 1 -19.88-33.4v-106.901a38.048 38.048 0 0 1 38-38h77.328a38.048 38.048 0 0 1 38.005 38zm149.807-210.76h83.963a8 8 0 0 0 8-8v-83.968a8 8 0 0 0 -8-8h-83.967a8 8 0 0 0 -8 8v33.986h-50.628a8 8 0 0 0 -8 8v193.943h-46.578a8 8 0 0 0 0 16h46.578v193.946a8 8 0 0 0 8 8h50.628v33.982a8 8 0 0 0 8 8h83.967a8 8 0 0 0 8-8v-83.968a8 8 0 0 0 -8-8h-83.967a8 8 0 0 0 -8 8v33.986h-42.628v-185.946h42.628v33.982a8 8 0 0 0 8 8h83.967a8 8 0 0 0 8-8v-83.968a8 8 0 0 0 -8-8h-83.967a8 8 0 0 0 -8 8v33.986h-42.628v-185.943h42.628v33.982a8 8 0 0 0 8 8zm8 319.921h67.963v67.968h-67.967zm0-201.946h67.963v67.968h-67.967zm0-201.943h67.963v67.968h-67.967zm5.9 40.062a8 8 0 0 1 11.313-11.314l9.018 9.017 24.533-24.533a8 8 0 0 1 11.314 11.313l-30.19 30.19a8 8 0 0 1 -11.314 0zm56.178 175.113a8 8 0 0 1 0 11.314l-30.19 30.19a8 8 0 0 1 -11.314 0l-14.674-14.675a8 8 0 0 1 11.313-11.313l9.018 9.018 24.533-24.534a8 8 0 0 1 11.306 0zm-56.186 228.776a8 8 0 0 1 11.313-11.314l9.018 9.017 24.533-24.533a8 8 0 0 1 11.314 11.314l-30.19 30.19a8 8 0 0 1 -11.314 0z"></path></svg>